<svg xmlns="http://www.w3.org/2000/svg" width="24" height="24" viewBox="0 0 24 24"><path fill="#262626" fill-rule="evenodd" d="M20.005 22.826H4c-2.207 0-3.996-1.774-3.997-3.962L0 8.94c0-2.19 1.788-3.965 3.995-3.965h.41c1.02 0 1.998-.4 2.72-1.118L8.17 2.82C8.7 2.296 9.418 2 10.167 2h3.665c.75 0 1.47.296 1.998.822l1.04 1.032c.72.718 1.7 1.12 2.72 1.12H20c2.207 0 3.995 1.775 3.997 3.963L24 18.86c0 2.19-1.788 3.966-3.995 3.966zm2.992-13.89c0-1.636-1.345-2.97-2.996-2.97h-.41c-1.295 0-2.513-.5-3.43-1.41l-1.037-1.033c-.345-.343-.804-.53-1.29-.53h-3.666c-.487 0-.945.187-1.29.53L7.83 4.558c-.914.907-2.13 1.407-3.426 1.407h-.41c-.8 0-1.552.31-2.117.87C1.31 7.4 1 8.146 1 8.94l.004 9.924c0 1.637 1.344 2.97 2.995 2.97h16.005c.8 0 1.553-.31 2.12-.87.565-.562.876-1.31.875-2.103l-.003-9.923zM12 19.36c-3.313 0-6-2.667-6-5.953 0-3.287 2.687-5.95 6-5.95 3.314 0 6 2.663 6 5.95 0 3.286-2.686 5.952-6 5.952zm0-10.913c-2.756 0-5 2.225-5 4.96s2.244 4.96 5 4.96c2.757 0 5-2.225 5-4.96s-2.243-4.96-5-4.96z"/></svg>
