<svg xmlns="http://www.w3.org/2000/svg" width="24" height="24" viewBox="0 0 24 24"><path fill="#262626" fill-rule="evenodd" d="M17.263 3c.988 0 1.967.285 2.832.824 2.785 1.738 3.735 5.614 2.118 8.642-1.443 2.7-7.997 7.71-9.97 9.18-.09.067-.182.08-.243.08-.06 0-.152-.013-.243-.08-1.974-1.47-8.527-6.48-9.97-9.18C.17 9.438 1.12 5.562 3.906 3.824 4.77 3.284 5.75 3 6.735 3c1.74 0 3.367.845 4.463 2.317L12 6.395l.802-1.078C13.898 3.845 15.524 3 17.262 3zm0-1C15.26 2 13.305 2.966 12 4.72 10.695 2.967 8.74 2 6.736 2c-1.142 0-2.3.314-3.36.976C.145 4.99-.96 9.45.905 12.936c1.52 2.845 7.936 7.784 10.254 9.51.25.188.545.28.84.28.295 0 .59-.092.84-.28 2.318-1.726 8.735-6.665 10.255-9.51 1.863-3.487.757-7.946-2.47-9.96C19.562 2.314 18.404 2 17.262 2z"/></svg>
