<svg xmlns="http://www.w3.org/2000/svg" width="252" height="76" viewBox="0 0 252 76"><g fill="#252626" fill-rule="evenodd"><path d="M217.905 39.588c-.09.635-.317 1.383-.68 2.244-.362.86-.827 1.69-1.394 2.482-.565.793-1.223 1.462-1.97 2.006-.75.544-1.576.816-2.483.816-1.36 0-2.55-.52-3.57-1.564-1.02-1.043-1.643-2.516-1.87-4.42-.272.725-.59 1.564-.952 2.516s-.816 1.836-1.36 2.652c-.544.816-1.167 1.507-1.87 2.074-.702.567-1.53.85-2.482.85-.272 0-.476-.023-.612-.068-.135-.045-.282-.102-.44-.17-.16-.068-.34-.125-.545-.17-.204-.045-.487-.068-.85-.068-1.088 0-2.006-.35-2.754-1.054-.747-.703-1.347-1.598-1.8-2.686-.454-1.088-.783-2.278-.987-3.57-.204-1.292-.306-2.505-.306-3.638 0-2.72.148-5.304.442-7.752.294-2.448.78-4.613 1.46-6.494.68-1.88 1.565-3.377 2.653-4.488 1.088-1.11 2.403-1.666 3.944-1.666.907 0 1.598.08 2.074.238.477.16.92.34 1.327.544.408.204.85.42 1.326.646.476.227 1.145.408 2.006.544.95.544 1.62 1.19 2.005 1.938.386.748.635 1.553.748 2.414.114.86.148 1.757.102 2.686-.045.93 0 1.847.136 2.754 0 .045.103.113.307.204.204.09.442.193.714.306.273.113.51.272.715.476.204.204.306.465.306.782v.272c-.452 1.18-.724 2.22-.815 3.128-.09.907-.136 1.995-.136 3.264 0 .635.033 1.326.1 2.074.07.748.183 1.45.34 2.108.16.657.398 1.2.715 1.632.318.43.726.646 1.224.646.543 0 1.03-.272 1.46-.816.432-.544.795-1.167 1.09-1.87.294-.703.543-1.417.747-2.142.204-.725.33-1.27.374-1.632.092-.544.32-.816.68-.816.228 0 .443.125.647.374.204.25.306.69.306 1.326v.51c0 .16-.022.35-.068.578zm-12.58-11.016c0-.5-.045-1.088-.136-1.768-.09-.68-.25-1.315-.477-1.904-.226-.59-.566-1.088-1.02-1.496-.453-.408-1.065-.612-1.836-.612-1.27 0-2.3.578-3.094 1.734-.793 1.156-1.416 2.516-1.87 4.08-.453 1.564-.748 3.173-.884 4.828-.137 1.655-.205 2.958-.205 3.91 0 .725.034 1.598.102 2.618.068 1.02.193 1.983.374 2.89.183.907.443 1.677.783 2.312.34.635.782.952 1.326.952 1.314 0 2.323-.51 3.025-1.53.703-1.02 1.236-2.29 1.598-3.808.363-1.52.624-3.15.782-4.896.16-1.745.306-3.343.442-4.794.09-.77.295-1.258.612-1.462.317-.204.475-.35.475-.442v-.612z"/><path d="M194.083 37.412c0 .317-.102 1.077-.306 2.278-.204 1.2-.567 2.47-1.088 3.808-.523 1.337-1.225 2.527-2.11 3.57-.883 1.043-2.005 1.564-3.365 1.564-1.45 0-2.607-.51-3.468-1.53-.862-1.02-1.52-2.244-1.972-3.672-.454-1.428-.748-2.924-.884-4.488-.135-1.564-.203-2.867-.203-3.91 0-1.18.068-2.37.204-3.57.137-1.2.227-2.39.273-3.57 0-.363-.182-.59-.544-.68-.364-.09-.704-.136-1.02-.136-.545 0-.885.068-1.02.204-.137.136-.228.295-.273.476l-.272 2.176c-.182 1.45-.374 2.845-.578 4.182-.204 1.337-.43 2.516-.68 3.536-.25 1.02-.544 1.836-.884 2.448-.34.612-.737.918-1.19.918h-.068c-.182 0-.352-.045-.51-.136-.16-.09-.238-.317-.238-.68 0-.18.045-.453.136-.816.362-1.587.59-2.9.68-3.944.09-1.043.158-1.972.204-2.788v-.476c0-.227.01-.5.034-.816.023-.317.035-.703.035-1.156v-3.332c0-.544-.046-1.133-.136-1.768l-.205-4.012c0-.272.113-.52.34-.748.226-.227.52-.43.884-.612.36-.18.747-.317 1.155-.408.408-.09.77-.136 1.088-.136.77 0 1.156.5 1.156 1.496v.34l-.07 1.496v.408c0 .317.07.51.205.578.136.068.408.147.816.238h.205c.362.045.952.09 1.768.136.816.045 1.632.136 2.448.272.817.136 1.53.35 2.143.646.612.295.918.714.918 1.258 0 .18-.045.442-.135.782-.09.34-.204.68-.34 1.02-.136.34-.25.646-.34.918-.09.272-.136.453-.136.544-.817 3.128-1.225 6.392-1.225 9.792 0 .272.022.77.068 1.496.045.725.136 1.473.272 2.244.136.77.34 1.45.612 2.04.272.59.612.884 1.02.884.68 0 1.292-.42 1.836-1.258.544-.84 1.02-1.813 1.428-2.924.41-1.11.737-2.233.987-3.366s.42-1.972.51-2.516c.09-.5.238-.805.442-.918.203-.113.395-.17.577-.17.634 0 .952.408.952 1.224 0 .09-.013.33-.035.714-.023.385-.057.67-.102.85zm-62.56 7.616c0 .544-.193 1.02-.578 1.428-.386.408-.862.77-1.428 1.088-.567.317-1.156.555-1.768.714-.613.16-1.123.238-1.53.238-.772 0-1.622-.08-2.55-.238-.93-.16-1.713-.487-2.347-.986-.726-.59-1.326-1.53-1.802-2.822-.475-1.292-.838-2.833-1.087-4.624-.25-1.79-.42-3.785-.51-5.984-.09-2.2-.136-4.5-.136-6.902 0-.997.034-2.108.102-3.332.067-1.224.146-2.505.237-3.842.09-1.337.204-2.675.34-4.012.136-1.337.272-2.618.408-3.842.136-.86.294-1.79.476-2.788.182-.997.375-1.95.58-2.856.203-.907.44-1.723.713-2.448.272-.725.566-1.247.884-1.564.362-.363.85-.6 1.462-.714.61-.113 1.166-.17 1.665-.17 1.042 0 1.88.272 2.516.816.635.544 1.123 1.28 1.463 2.21.34.93.566 1.995.68 3.196.113 1.2.17 2.482.17 3.842 0 2.085-.068 4.34-.204 6.766-.137 2.425-.42 4.862-.85 7.31-.432 2.448-1.044 4.828-1.837 7.14-.794 2.312-1.848 4.42-3.162 6.324.046.635.125 1.37.24 2.21.112.84.282 1.62.51 2.346.225.725.52 1.337.883 1.836.362.5.838.748 1.428.748.545 0 .975-.125 1.293-.374.317-.25.6-.533.85-.85.25-.317.498-.6.748-.85s.58-.374.987-.374c.453 0 .76.136.918.408.158.272.238.59.238.952zm-5.1-31.96c0-.453-.012-.997-.034-1.632-.024-.635-.092-1.258-.205-1.87-.114-.612-.26-1.133-.442-1.564-.182-.43-.43-.646-.748-.646-.454 0-.816.635-1.088 1.904-.272 1.27-.488 2.935-.646 4.998-.158 2.063-.27 4.397-.34 7.004-.067 2.607-.1 5.247-.1 7.922v2.414c0 .84.044 1.575.135 2.21 1.496-3.58 2.448-7.05 2.856-10.404.41-3.355.613-6.8.613-10.336zm-39.35 17.204c-.634 1.224-1.224 2.516-1.768 3.876-.544 1.36-.952 2.425-1.224 3.196-.044.227-.17.703-.373 1.428l-.68 2.414c-.25.884-.464 1.757-.646 2.618-.18.86-.27 1.564-.27 2.108 0 .227-.205.43-.613.612-.408.18-.93.272-1.564.272-.997 0-1.79-.136-2.38-.408-.59-.272-1.03-.714-1.326-1.326-.294-.612-.476-1.417-.544-2.414-.068-.997-.102-2.2-.102-3.604v-5.1c0-.363-.01-.725-.033-1.088-.022-.363-.102-.59-.238-.68-.227.09-.51.68-.85 1.768-.34 1.088-.658 2.414-.953 3.978-.294 1.564-.555 3.207-.782 4.93-.226 1.723-.34 3.264-.34 4.624 0 .5-.26.793-.782.884-.52.09-1.1.136-1.734.136-.182 0-.488-.034-.92-.102-.43-.068-.86-.147-1.29-.238-.43-.09-.828-.215-1.19-.374-.363-.16-.59-.35-.68-.578-.227-.59-.397-1.564-.51-2.924-.114-1.36-.17-3.468-.17-6.324 0-1.677.033-3.627.1-5.848.07-2.22.15-4.828.24-7.82 0-.408-.023-.94-.07-1.598-.044-.657-.067-1.03-.067-1.122 0-.363.148-.578.442-.646.295-.068.51-.102.646-.102.32 0 .693.034 1.123.102.43.068.862.147 1.292.238.43.09.828.193 1.19.306.363.113.612.215.748.306V38.16c.227-.907.488-1.96.782-3.162.295-1.2.635-2.39 1.02-3.57.386-1.18.805-2.267 1.258-3.264.454-.997.93-1.723 1.428-2.176.183-.136.523-.238 1.02-.306.5-.068.908-.102 1.225-.102.227 0 .51.034.85.102.34.068.67.17.986.306.32.136.602.306.85.51.25.204.398.442.443.714V38.84c0 .272.046.408.136.408.09 0 .35-.612.78-1.836.432-1.224.942-2.675 1.53-4.352.59-1.677 1.225-3.4 1.905-5.168.68-1.768 1.292-3.173 1.836-4.216.092-.18.398-.283.92-.306.52-.023.985-.034 1.393-.034.318 0 .748.102 1.292.306.544.204 1.077.487 1.598.85.522.363.975.77 1.36 1.224.386.453.578.93.578 1.428 0 .09-.135.35-.407.782-.272.43-.453.873-.544 1.326-.318 1.27-.533 2.516-.647 3.74-.113 1.224-.17 2.788-.17 4.692 0 .816.034 1.632.102 2.448.068.816.182 1.553.34 2.21.16.657.374 1.19.646 1.598.273.408.636.612 1.09.612.634 0 1.2-.215 1.7-.646.498-.43.93-1.01 1.29-1.734.364-.725.68-1.575.953-2.55.272-.975.5-1.983.68-3.026.227-1.088.635-1.632 1.224-1.632.363 0 .6.09.714.272.115.18.17.59.17 1.224 0 .363-.02.612-.067.748-.045.59-.238 1.507-.578 2.754-.34 1.247-.816 2.493-1.428 3.74-.612 1.247-1.37 2.335-2.278 3.264-.907.93-1.95 1.394-3.13 1.394-1.404 0-2.56-.33-3.467-.986-.906-.657-1.61-1.54-2.108-2.652-.498-1.11-.85-2.39-1.054-3.842-.203-1.45-.305-2.97-.305-4.556v-.476l.408-5.576z"/><path d="M67.4 39.588c-.092.635-.32 1.383-.68 2.244-.364.86-.83 1.69-1.395 2.482-.567.793-1.224 1.462-1.972 2.006-.748.544-1.576.816-2.482.816-1.36 0-2.55-.52-3.57-1.564-1.02-1.043-1.643-2.516-1.87-4.42-.27.725-.59 1.564-.95 2.516-.364.952-.817 1.836-1.36 2.652-.545.816-1.17 1.507-1.87 2.074-.704.567-1.53.85-2.483.85-.272 0-.476-.023-.612-.068-.136-.045-.284-.102-.442-.17-.16-.068-.34-.125-.544-.17-.205-.045-.49-.068-.85-.068-1.09 0-2.007-.35-2.755-1.054-.748-.703-1.35-1.598-1.802-2.686-.454-1.088-.782-2.278-.986-3.57-.204-1.292-.306-2.505-.306-3.638 0-2.72.148-5.304.443-7.752.294-2.448.782-4.613 1.462-6.494.68-1.88 1.564-3.377 2.652-4.488 1.088-1.11 2.402-1.666 3.944-1.666.907 0 1.6.08 2.075.238.476.16.918.34 1.326.544.41.204.85.42 1.327.646.476.227 1.144.408 2.006.544.952.544 1.62 1.19 2.006 1.938.384.748.633 1.553.747 2.414.113.86.147 1.757.102 2.686-.047.93 0 1.847.135 2.754 0 .045.102.113.306.204.205.09.443.193.715.306.272.113.51.272.714.476.203.204.305.465.305.782v.272c-.454 1.18-.726 2.22-.816 3.128-.092.907-.137 1.995-.137 3.264 0 .635.034 1.326.102 2.074.068.748.18 1.45.34 2.108.158.657.396 1.2.714 1.632.316.43.724.646 1.223.646.544 0 1.03-.272 1.462-.816.43-.544.793-1.167 1.088-1.87.294-.703.544-1.417.748-2.142.205-.725.33-1.27.375-1.632.09-.544.317-.816.68-.816.226 0 .442.125.646.374.205.25.307.69.307 1.326v.51c0 .16-.023.35-.068.578zM54.82 28.572c0-.5-.047-1.088-.137-1.768-.09-.68-.25-1.315-.476-1.904-.227-.59-.567-1.088-1.02-1.496-.454-.408-1.066-.612-1.836-.612-1.27 0-2.3.578-3.093 1.734-.794 1.156-1.417 2.516-1.87 4.08-.454 1.564-.748 3.173-.884 4.828-.136 1.655-.204 2.958-.204 3.91 0 .725.033 1.598.1 2.618.07 1.02.193 1.983.375 2.89.18.907.442 1.677.782 2.312.34.635.782.952 1.326.952 1.314 0 2.323-.51 3.026-1.53.7-1.02 1.234-2.29 1.597-3.808.362-1.52.623-3.15.782-4.896.157-1.745.305-3.343.44-4.794.09-.77.295-1.258.613-1.462.317-.204.476-.35.476-.442v-.612zm-15.8-16.864c0 .816-.113 1.632-.34 2.448-.363 2.72-.657 5.293-.884 7.718-.227 2.425-.34 4.862-.34 7.31 0 1.677.102 3.808.306 6.392.204 2.584.306 5.304.306 8.16 0 1.95-.09 3.842-.272 5.678-.18 1.836-.52 3.48-1.02 4.93-.5 1.45-1.18 2.64-2.04 3.57-.86.93-1.995 1.462-3.4 1.598-.907.09-1.915.16-3.026.204-1.11.045-2.12.068-3.026.068-.77 0-1.677-.113-2.72-.34-1.043-.227-2.03-.6-2.958-1.122-.93-.52-1.71-1.167-2.346-1.938-.635-.77-.952-1.7-.952-2.788 0-.227.08-.533.238-.918.16-.385.397-.578.714-.578.907 0 1.587.295 2.04.884.453.59.907 1.247 1.36 1.972.453.725 1.03 1.383 1.734 1.972.703.59 1.757.884 3.162.884 1.315 0 2.357-.33 3.128-.986.77-.657 1.37-1.54 1.802-2.652.43-1.11.714-2.38.85-3.808s.204-2.89.204-4.386c0-1.45-.034-2.867-.102-4.25-.068-1.383-.102-2.663-.102-3.842 0-.5.01-.975.034-1.428.023-.453.057-.86.102-1.224-.363 1.27-.748 2.697-1.156 4.284-.408 1.587-.93 3.083-1.564 4.488-.635 1.405-1.417 2.584-2.346 3.536-.93.952-2.074 1.428-3.434 1.428-1.27 0-2.39-.283-3.366-.85-.975-.567-1.78-1.326-2.414-2.278-.635-.952-1.11-2.03-1.428-3.23-.317-1.2-.476-2.414-.476-3.638 0-2.176.113-4.375.34-6.596.227-2.22.476-4.465.748-6.732.272-2.267.52-4.545.748-6.834.227-2.29.34-4.613.34-6.97 0-.544-.023-1.19-.068-1.938-.045-.748-.17-1.473-.374-2.176-.204-.703-.51-1.303-.918-1.802-.408-.5-.975-.748-1.7-.748s-1.394.227-2.006.68c-.612.453-1.167.93-1.666 1.428-2.04 2.085-3.638 4.59-4.794 7.514-1.156 2.924-1.734 6.018-1.734 9.282 0 .544.034 1.167.102 1.87.068.703.227 1.37.476 2.006.25.635.6 1.18 1.054 1.632.453.453 1.043.68 1.768.68.408 0 .748-.125 1.02-.374.272-.25.52-.52.748-.816.227-.295.465-.567.714-.816.25-.25.533-.374.85-.374.5 0 .93.34 1.292 1.02.363.68.544 1.224.544 1.632 0 .635-.16 1.122-.476 1.462-.317.34-.703.59-1.156.748-.453.16-.94.25-1.462.272-.52.023-1.01.034-1.462.034-.408 0-.963-.125-1.666-.374-.703-.25-1.235-.487-1.598-.714-1.45-.77-2.482-1.734-3.094-2.89-.612-1.156-.918-2.527-.918-4.114 0-1.405.147-2.97.442-4.692.295-1.723.725-3.468 1.292-5.236.567-1.768 1.258-3.502 2.074-5.202.816-1.7 1.757-3.207 2.822-4.522C8.635 4 9.825 2.946 11.14 2.154c1.315-.793 2.72-1.19 4.216-1.19 1.18 0 2.085.306 2.72.918.635.612 1.292 1.303 1.972 2.074.272.227.646.533 1.122.918.476.385.827.69 1.054.918.317.317.578.895.782 1.734.204.84.363 1.734.476 2.686.113.952.193 1.88.238 2.788.045.907.068 1.61.068 2.108 0 1.995-.113 4.012-.34 6.052-.227 2.04-.487 4.08-.782 6.12-.295 2.04-.555 4.09-.782 6.154-.227 2.063-.34 4.114-.34 6.154 0 .408.023.963.068 1.666.045.703.147 1.405.306 2.108.16.703.397 1.303.714 1.802.317.5.77.748 1.36.748.544 0 1.088-.442 1.632-1.326.544-.884 1.065-2.04 1.564-3.468.5-1.428.986-3.015 1.462-4.76.476-1.745.895-3.48 1.258-5.202.363-1.723.68-3.332.952-4.828.272-1.496.476-2.697.612-3.604.227-1.45.397-2.913.51-4.386.113-1.473.17-3.07.17-4.794 0-.544-.023-1.065-.068-1.564-.045-.5-.068-.952-.068-1.36 0-.272.227-.453.68-.544.453-.09.86-.136 1.224-.136.227 0 .612.045 1.156.136.544.09 1.11.227 1.7.408.59.18 1.11.374 1.564.578.453.204.68.42.68.646zm77.112 24.548c0 1.224-.102 2.527-.306 3.91-.204 1.383-.612 2.652-1.224 3.808-.612 1.156-1.473 2.12-2.584 2.89-1.11.77-2.573 1.156-4.386 1.156-1.632 0-2.822-.125-3.57-.374-.748-.25-1.37-.533-1.87-.85l-1.088.544c-.272.136-.533.26-.782.374-.25.113-.442.17-.578.17-.317 0-.6-.113-.85-.34-.25-.227-.442-.69-.578-1.394-.136-.703-.238-1.677-.306-2.924-.068-1.247-.102-2.89-.102-4.93 0-3.264.045-7.752.136-13.464.09-5.712.18-13.08.272-22.1 0-.453-.045-.725-.136-.816-.09-.09-.136-.18-.136-.272 0-.272.26-.453.782-.544.52-.09.85-.136.986-.136s.5.045 1.088.136c.59.09 1.19.227 1.802.408.612.18 1.167.42 1.666.714.5.295.748.646.748 1.054l-.136.408c-.09.272-.204.6-.34.986-.136.385-.26.748-.374 1.088-.113.34-.17.578-.17.714-.227 1.723-.397 3.207-.51 4.454-.113 1.247-.204 2.56-.272 3.944-.068 1.383-.136 2.98-.204 4.794-.068 1.813-.17 4.17-.306 7.072.227-.453.442-1.03.646-1.734.204-.703.465-1.394.782-2.074.317-.68.714-1.27 1.19-1.768.476-.5 1.122-.748 1.938-.748.363 0 .873.136 1.53.408.657.272 1.167.453 1.53.544 1.27.272 2.278.986 3.026 2.142.748 1.156 1.326 2.493 1.734 4.012.408 1.52.67 3.07.782 4.658.113 1.587.17 2.947.17 4.08zm-4.964-1.632c0-.136-.01-.5-.034-1.088-.023-.59-.068-1.27-.136-2.04s-.17-1.598-.306-2.482c-.136-.884-.33-1.69-.578-2.414-.25-.725-.555-1.326-.918-1.802s-.816-.714-1.36-.714c-.725 0-1.405.635-2.04 1.904-.635 1.27-1.19 2.8-1.666 4.59s-.85 3.638-1.122 5.542c-.272 1.904-.408 3.468-.408 4.692 0 .5.01 1.03.034 1.598.023.567.08 1.1.17 1.598.544.227.952.42 1.224.578.272.16.5.295.68.408.18.113.374.193.578.238.204.045.465.068.782.068 1.18 0 2.108-.465 2.788-1.394.68-.93 1.19-1.995 1.53-3.196.34-1.2.555-2.39.646-3.57.09-1.18.136-2.017.136-2.516zm40.505 11.9l-.272.272c-.135.136-.34.204-.61.204h-15.98c-.68 0-1.338-.25-1.973-.748-.634-.5-1.19-1.1-1.666-1.802-.475-.703-.86-1.44-1.155-2.21-.294-.77-.442-1.428-.442-1.972 1.768-1.27 3.49-2.686 5.168-4.25 1.68-1.564 3.163-3.037 4.455-4.42 1.292-1.383 2.335-2.573 3.128-3.57.794-.997 1.19-1.564 1.19-1.7v-.068c0-.18-.08-.374-.238-.578-.158-.204-.69-.306-1.598-.306h-.544l-8.976.408c-.453-.363-.827-.77-1.122-1.224-.294-.453-.532-.907-.714-1.36-.18-.453-.316-.85-.407-1.19-.09-.34-.136-.555-.136-.646l.068-.544h8.296l8.093-.204c.635 0 1.156.283 1.564.85.408.567.737 1.247.986 2.04.25.793.43 1.575.544 2.346.114.77.17 1.36.17 1.768v.374c0 .16-.022.26-.068.306-1.542 1.088-2.97 2.312-4.285 3.672-1.314 1.36-2.448 2.686-3.4 3.978-.952 1.292-1.7 2.448-2.244 3.468-.543 1.02-.815 1.734-.815 2.142 0 .18.193.33.578.442.386.113.884.204 1.496.272.61.068 1.303.113 2.073.136.77.023 1.542.034 2.312.034h5.1c.5 0 .862.35 1.088 1.054.227.703.34 1.37.34 2.006v1.02zm23.21 2.244c0 .453-.203.77-.61.952-.41.18-.794.272-1.157.272l-1.36-.136c-.227 0-.34.136-.34.408l-.068.816c.045 1.224.068 2.765.068 4.624v5.372c0 1.813-.057 3.593-.17 5.338-.113 1.745-.374 3.31-.782 4.692-.408 1.383-.986 2.493-1.734 3.332-.748.84-1.78 1.258-3.094 1.258-1.133 0-2.323-.057-3.57-.17-1.247-.113-2.38-.397-3.4-.85-1.02-.453-1.86-1.122-2.516-2.006-.657-.884-.986-2.074-.986-3.57s.17-3.026.51-4.59c.34-1.564.827-3.083 1.462-4.556.635-1.473 1.394-2.88 2.278-4.216.884-1.337 1.847-2.527 2.89-3.57.544-.544 1.145-1.1 1.802-1.666.657-.567 1.235-1.03 1.734-1.394v-.068c.09-.952.16-1.904.204-2.856.045-.952.068-1.927.068-2.924-.227.408-.5.963-.816 1.666-.317.703-.69 1.37-1.122 2.006-.43.635-.918 1.19-1.462 1.666-.544.476-1.156.714-1.836.714-.363 0-.68-.068-.952-.204-.272-.136-.657-.204-1.156-.204-1.27-.09-2.323-.43-3.162-1.02-.84-.59-1.496-1.405-1.972-2.448s-.805-2.278-.986-3.706c-.18-1.428-.272-3.026-.272-4.794 0-2.13.125-4.33.374-6.596.25-2.267.69-4.34 1.326-6.222.635-1.88 1.485-3.423 2.55-4.624 1.065-1.2 2.414-1.802 4.046-1.802.18 0 .42.068.714.204.295.136.612.283.952.442l1.02.476c.34.16.6.26.782.306.907.18 1.745.408 2.516.68.77.272 1.428.623 1.972 1.054.544.43.975.997 1.292 1.7.317.703.476 1.575.476 2.618 0 .725-.057 1.383-.17 1.972-.113.59-.17 1.337-.17 2.244 0 .363.136.612.408.748.272.136.578.25.918.34.34.09.646.193.918.306.272.113.408.35.408.714 0 .09-.102.306-.306.646-.204.34-.33.555-.374.646-.136.363-.25.94-.34 1.734-.09.793-.16 1.655-.204 2.584-.045.93-.08 1.88-.102 2.856-.023.975-.034 1.847-.034 2.618v2.346c0 .975.023 1.78.068 2.414h.272c.09 0 .18-.01.272-.034.09-.023.16-.034.204-.034.408 0 .963.125 1.666.374.703.25 1.054.623 1.054 1.122zm-8.703-21.012c0-.5-.045-1.065-.136-1.7-.09-.635-.25-1.235-.476-1.802-.227-.567-.555-1.043-.986-1.428-.43-.385-.963-.578-1.598-.578-.86 0-1.666.34-2.414 1.02-.748.68-1.405 1.643-1.972 2.89s-1.02 2.765-1.36 4.556c-.34 1.79-.51 3.82-.51 6.086 0 .952.034 1.938.102 2.958.068 1.02.18 1.938.34 2.754.16.816.408 1.496.748 2.04s.782.816 1.326.816c.952 0 1.79-.408 2.516-1.224.725-.816 1.326-1.825 1.802-3.026.476-1.2.84-2.448 1.088-3.74.25-1.292.397-2.414.442-3.366.045-1.315.113-2.21.204-2.686.09-.476.18-.782.272-.918.272-.363.442-.793.51-1.292.068-.5.102-.952.102-1.36zm-.272 23.664c-1.043.725-2.03 1.745-2.958 3.06-.93 1.315-1.734 2.743-2.414 4.284-.68 1.54-1.213 3.105-1.598 4.692-.385 1.587-.578 3.015-.578 4.284 0 .453.045.952.136 1.496.09.544.238 1.054.442 1.53.204.476.5.873.884 1.19.385.317.85.476 1.394.476.952 0 1.734-.397 2.346-1.19.612-.793 1.088-1.734 1.428-2.822.34-1.088.567-2.2.68-3.332.113-1.133.17-2.04.17-2.72v-.612c0-.272.01-.793.034-1.564.023-.77.034-1.847.034-3.23V51.42zm71.672-21.148c-.635 1.224-1.224 2.516-1.768 3.876-.544 1.36-.952 2.425-1.224 3.196-.045.227-.17.703-.374 1.428l-.68 2.414c-.25.884-.465 1.757-.646 2.618-.18.86-.272 1.564-.272 2.108 0 .227-.204.43-.612.612-.408.18-.93.272-1.564.272-.997 0-1.79-.136-2.38-.408-.59-.272-1.03-.714-1.326-1.326-.295-.612-.476-1.417-.544-2.414-.068-.997-.102-2.2-.102-3.604v-5.1c0-.363-.01-.725-.034-1.088-.023-.363-.102-.59-.238-.68-.227.09-.51.68-.85 1.768-.34 1.088-.657 2.414-.952 3.978-.295 1.564-.555 3.207-.782 4.93-.227 1.723-.34 3.264-.34 4.624 0 .5-.26.793-.782.884-.52.09-1.1.136-1.734.136-.18 0-.487-.034-.918-.102-.43-.068-.86-.147-1.292-.238-.43-.09-.827-.215-1.19-.374-.363-.16-.59-.35-.68-.578-.227-.59-.397-1.564-.51-2.924-.113-1.36-.17-3.468-.17-6.324 0-1.677.034-3.627.102-5.848l.238-7.82c0-.408-.023-.94-.068-1.598-.045-.657-.068-1.03-.068-1.122 0-.363.147-.578.442-.646.295-.068.51-.102.646-.102.317 0 .69.034 1.122.102.43.068.86.147 1.292.238.43.09.827.193 1.19.306.363.113.612.215.748.306V38.16c.227-.907.487-1.96.782-3.162.295-1.2.635-2.39 1.02-3.57.385-1.18.805-2.267 1.258-3.264.453-.997.93-1.723 1.428-2.176.18-.136.52-.238 1.02-.306s.907-.102 1.224-.102c.227 0 .51.034.85.102.34.068.67.17.986.306.317.136.6.306.85.51.25.204.397.442.442.714V38.84c0 .272.045.408.136.408.09 0 .35-.612.782-1.836l1.53-4.352c.59-1.677 1.224-3.4 1.904-5.168.68-1.768 1.292-3.173 1.836-4.216.09-.18.397-.283.918-.306.52-.023.986-.034 1.394-.034.317 0 .748.102 1.292.306.544.204 1.077.487 1.598.85.52.363.975.77 1.36 1.224.385.453.578.93.578 1.428 0 .09-.136.35-.408.782-.272.43-.453.873-.544 1.326-.317 1.27-.533 2.516-.646 3.74-.113 1.224-.17 2.788-.17 4.692 0 .816.034 1.632.102 2.448.068.816.18 1.553.34 2.21.16.657.374 1.19.646 1.598.272.408.635.612 1.088.612.635 0 1.2-.215 1.7-.646.5-.43.93-1.01 1.292-1.734.363-.725.68-1.575.952-2.55.272-.975.5-1.983.68-3.026.227-1.088.635-1.632 1.224-1.632.363 0 .6.09.714.272.113.18.17.59.17 1.224 0 .363-.023.612-.068.748-.045.59-.238 1.507-.578 2.754-.34 1.247-.816 2.493-1.428 3.74-.612 1.247-1.37 2.335-2.278 3.264-.907.93-1.95 1.394-3.128 1.394-1.405 0-2.56-.33-3.468-.986-.907-.657-1.61-1.54-2.108-2.652-.5-1.11-.85-2.39-1.054-3.842-.204-1.45-.306-2.97-.306-4.556v-.476l.408-5.576z"/></g></svg>